<mxfile host="drawio-plugin" modified="2024-07-09T11:04:08.670Z" agent="5.0 (Windows NT 6.2; Win64; x64) AppleWebKit/537.36 (KHTML, like Gecko) Chrome/104.0.5112.102 Safari/537.36" etag="J6lJdeAekH4EVkxvNxR9" version="20.5.3" type="embed" pages="2"><diagram id="23iRSUPoRavnBvh4doch" name="Page-1"><mxGraphModel dx="1136" dy="1110" grid="1" gridSize="10" guides="1" tooltips="1" connect="1" arrows="1" fold="1" page="1" pageScale="1" pageWidth="827" pageHeight="1169" math="0" shadow="0"><root><mxCell id="0"/><mxCell id="1" parent="0"/><mxCell id="2" value="Sensor Settings" style="shape=cylinder3;whiteSpace=wrap;html=1;boundedLbl=1;backgroundOutline=1;size=15;" vertex="1" parent="1"><mxGeometry x="100" y="300" width="90" height="160" as="geometry"/></mxCell><mxCell id="4" value="Actor Settings" style="shape=cylinder3;whiteSpace=wrap;html=1;boundedLbl=1;backgroundOutline=1;size=15;" vertex="1" parent="1"><mxGeometry x="230" y="300" width="90" height="160" as="geometry"/></mxCell><mxCell id="5" value="Journals" style="shape=cylinder3;whiteSpace=wrap;html=1;boundedLbl=1;backgroundOutline=1;size=15;" vertex="1" parent="1"><mxGeometry x="360" y="300" width="90" height="160" as="geometry"/></mxCell><mxCell id="6" value="Current Journal (maybe only a table not a standalone db)" style="shape=cylinder3;whiteSpace=wrap;html=1;boundedLbl=1;backgroundOutline=1;size=15;" vertex="1" parent="1"><mxGeometry x="490" y="300" width="90" height="160" as="geometry"/></mxCell><mxCell id="20" style="edgeStyle=orthogonalEdgeStyle;rounded=0;orthogonalLoop=1;jettySize=auto;html=1;" edge="1" parent="1" source="15" target="2"><mxGeometry relative="1" as="geometry"><Array as="points"><mxPoint x="340" y="210"/><mxPoint x="145" y="210"/></Array></mxGeometry></mxCell><mxCell id="22" style="edgeStyle=orthogonalEdgeStyle;rounded=0;orthogonalLoop=1;jettySize=auto;html=1;" edge="1" parent="1" source="15" target="4"><mxGeometry relative="1" as="geometry"/></mxCell><mxCell id="23" style="edgeStyle=orthogonalEdgeStyle;rounded=0;orthogonalLoop=1;jettySize=auto;html=1;" edge="1" parent="1" source="15" target="5"><mxGeometry relative="1" as="geometry"/></mxCell><mxCell id="24" style="edgeStyle=orthogonalEdgeStyle;rounded=0;orthogonalLoop=1;jettySize=auto;html=1;" edge="1" parent="1" source="15" target="6"><mxGeometry relative="1" as="geometry"><Array as="points"><mxPoint x="340" y="210"/><mxPoint x="535" y="210"/></Array></mxGeometry></mxCell><mxCell id="15" value="DatabaseController" style="swimlane;fontStyle=1;align=center;verticalAlign=top;childLayout=stackLayout;horizontal=1;startSize=26;horizontalStack=0;resizeParent=1;resizeParentMax=0;resizeLast=0;collapsible=1;marginBottom=0;" vertex="1" parent="1"><mxGeometry x="260" y="70" width="160" height="112" as="geometry"/></mxCell><mxCell id="16" value="- databaseInstances: set" style="text;strokeColor=none;fillColor=none;align=left;verticalAlign=top;spacingLeft=4;spacingRight=4;overflow=hidden;rotatable=0;points=[[0,0.5],[1,0.5]];portConstraint=eastwest;" vertex="1" parent="15"><mxGeometry y="26" width="160" height="26" as="geometry"/></mxCell><mxCell id="17" value="" style="line;strokeWidth=1;fillColor=none;align=left;verticalAlign=middle;spacingTop=-1;spacingLeft=3;spacingRight=3;rotatable=0;labelPosition=right;points=[];portConstraint=eastwest;strokeColor=inherit;" vertex="1" parent="15"><mxGeometry y="52" width="160" height="8" as="geometry"/></mxCell><mxCell id="18" value="+ openDatabase(Database)" style="text;strokeColor=none;fillColor=none;align=left;verticalAlign=top;spacingLeft=4;spacingRight=4;overflow=hidden;rotatable=0;points=[[0,0.5],[1,0.5]];portConstraint=eastwest;" vertex="1" parent="15"><mxGeometry y="60" width="160" height="26" as="geometry"/></mxCell><mxCell id="19" value="+ closeDatabase(Database)" style="text;strokeColor=none;fillColor=none;align=left;verticalAlign=top;spacingLeft=4;spacingRight=4;overflow=hidden;rotatable=0;points=[[0,0.5],[1,0.5]];portConstraint=eastwest;" vertex="1" parent="15"><mxGeometry y="86" width="160" height="26" as="geometry"/></mxCell></root></mxGraphModel></diagram><diagram id="DT3NWDf5XGFPtWyRYROO" name="Sequence-Diagram">&#xa;    <mxGraphModel dx="899" dy="1112" grid="1" gridSize="10" guides="1" tooltips="1" connect="1" arrows="1" fold="1" page="1" pageScale="1" pageWidth="827" pageHeight="1169" math="0" shadow="0">&#xa;      <root>&#xa;        <mxCell id="0"/>&#xa;        <mxCell id="1" parent="0"/>&#xa;        <mxCell id="e4az-tmhH8eZ0OtNV26Z-1" value="" style="shape=umlLifeline;perimeter=lifelinePerimeter;whiteSpace=wrap;html=1;container=1;dropTarget=0;collapsible=0;recursiveResize=0;outlineConnect=0;portConstraint=eastwest;newEdgeStyle={&quot;curved&quot;:0,&quot;rounded&quot;:0};participant=umlActor;" parent="1" vertex="1">&#xa;          <mxGeometry x="30" y="40" width="20" height="850" as="geometry"/>&#xa;        </mxCell>&#xa;        <mxCell id="e4az-tmhH8eZ0OtNV26Z-3" value="Database&lt;br&gt;Manipulator" style="shape=umlLifeline;perimeter=lifelinePerimeter;whiteSpace=wrap;html=1;container=1;dropTarget=0;collapsible=0;recursiveResize=0;outlineConnect=0;portConstraint=eastwest;newEdgeStyle={&quot;curved&quot;:0,&quot;rounded&quot;:0};" parent="1" vertex="1">&#xa;          <mxGeometry x="110" y="40" width="100" height="850" as="geometry"/>&#xa;        </mxCell>&#xa;        <mxCell id="e4az-tmhH8eZ0OtNV26Z-4" value="__init__(database)" style="html=1;verticalAlign=bottom;endArrow=block;curved=0;rounded=0;" parent="1" target="e4az-tmhH8eZ0OtNV26Z-3" edge="1">&#xa;          <mxGeometry width="80" relative="1" as="geometry">&#xa;            <mxPoint x="40" y="120" as="sourcePoint"/>&#xa;            <mxPoint x="120" y="120" as="targetPoint"/>&#xa;          </mxGeometry>&#xa;        </mxCell>&#xa;        <mxCell id="e4az-tmhH8eZ0OtNV26Z-5" value="Database:&amp;nbsp;&lt;br&gt;DatabaseInterface" style="shape=umlLifeline;perimeter=lifelinePerimeter;whiteSpace=wrap;html=1;container=1;dropTarget=0;collapsible=0;recursiveResize=0;outlineConnect=0;portConstraint=eastwest;newEdgeStyle={&quot;curved&quot;:0,&quot;rounded&quot;:0};" parent="1" vertex="1">&#xa;          <mxGeometry x="230" y="40" width="100" height="850" as="geometry"/>&#xa;        </mxCell>&#xa;        <mxCell id="e4az-tmhH8eZ0OtNV26Z-6" value="__init__()" style="html=1;verticalAlign=bottom;endArrow=block;curved=0;rounded=0;" parent="1" target="e4az-tmhH8eZ0OtNV26Z-5" edge="1">&#xa;          <mxGeometry width="80" relative="1" as="geometry">&#xa;            <mxPoint x="160" y="130" as="sourcePoint"/>&#xa;            <mxPoint x="240" y="130" as="targetPoint"/>&#xa;          </mxGeometry>&#xa;        </mxCell>&#xa;        <mxCell id="e4az-tmhH8eZ0OtNV26Z-7" value="instance" style="html=1;verticalAlign=bottom;endArrow=block;curved=0;rounded=0;" parent="1" edge="1">&#xa;          <mxGeometry width="80" relative="1" as="geometry">&#xa;            <mxPoint x="280" y="150" as="sourcePoint"/>&#xa;            <mxPoint x="159.5" y="150" as="targetPoint"/>&#xa;          </mxGeometry>&#xa;        </mxCell>&#xa;        <mxCell id="NraJfhpnYq18qEgPwm5T-3" value="" style="group" parent="1" vertex="1" connectable="0">&#xa;          <mxGeometry x="30" y="330" width="260" height="100" as="geometry"/>&#xa;        </mxCell>&#xa;        <mxCell id="e4az-tmhH8eZ0OtNV26Z-14" value="createTable" style="shape=umlFrame;whiteSpace=wrap;html=1;pointerEvents=0;width=80;height=30;" parent="NraJfhpnYq18qEgPwm5T-3" vertex="1">&#xa;          <mxGeometry width="260" height="100" as="geometry"/>&#xa;        </mxCell>&#xa;        <mxCell id="e4az-tmhH8eZ0OtNV26Z-16" value="dataBaseInstance.&lt;br&gt;createTable&lt;br style=&quot;border-color: var(--border-color);&quot;&gt;(tableHandle, &lt;br&gt;columns, name)" style="html=1;verticalAlign=bottom;endArrow=block;curved=0;rounded=0;" parent="NraJfhpnYq18qEgPwm5T-3" edge="1">&#xa;          <mxGeometry x="0.0042" width="80" relative="1" as="geometry">&#xa;            <mxPoint x="130" y="70" as="sourcePoint"/>&#xa;            <mxPoint x="249.5" y="70" as="targetPoint"/>&#xa;            <Array as="points">&#xa;              <mxPoint x="160" y="70"/>&#xa;              <mxPoint x="190" y="70"/>&#xa;            </Array>&#xa;            <mxPoint as="offset"/>&#xa;          </mxGeometry>&#xa;        </mxCell>&#xa;        <mxCell id="e4az-tmhH8eZ0OtNV26Z-17" value="createTable&lt;br&gt;(columns, name)" style="html=1;verticalAlign=bottom;endArrow=block;curved=0;rounded=0;" parent="NraJfhpnYq18qEgPwm5T-3" edge="1">&#xa;          <mxGeometry width="80" relative="1" as="geometry">&#xa;            <mxPoint x="10" y="60" as="sourcePoint"/>&#xa;            <mxPoint x="129.5" y="60" as="targetPoint"/>&#xa;          </mxGeometry>&#xa;        </mxCell>&#xa;        <mxCell id="NraJfhpnYq18qEgPwm5T-4" value="" style="group" parent="1" vertex="1" connectable="0">&#xa;          <mxGeometry x="30" y="160" width="260" height="150" as="geometry"/>&#xa;        </mxCell>&#xa;        <mxCell id="e4az-tmhH8eZ0OtNV26Z-8" value="connect()" style="html=1;verticalAlign=bottom;endArrow=block;curved=0;rounded=0;" parent="NraJfhpnYq18qEgPwm5T-4" edge="1">&#xa;          <mxGeometry x="0.0042" width="80" relative="1" as="geometry">&#xa;            <mxPoint x="10" y="50" as="sourcePoint"/>&#xa;            <mxPoint x="129.5" y="50" as="targetPoint"/>&#xa;            <mxPoint as="offset"/>&#xa;          </mxGeometry>&#xa;        </mxCell>&#xa;        <mxCell id="e4az-tmhH8eZ0OtNV26Z-9" value="dataBaseInstance.&lt;br&gt;connect()" style="html=1;verticalAlign=bottom;endArrow=block;curved=0;rounded=0;" parent="NraJfhpnYq18qEgPwm5T-4" edge="1">&#xa;          <mxGeometry x="0.0042" width="80" relative="1" as="geometry">&#xa;            <mxPoint x="130" y="60" as="sourcePoint"/>&#xa;            <mxPoint x="250" y="60" as="targetPoint"/>&#xa;            <mxPoint as="offset"/>&#xa;          </mxGeometry>&#xa;        </mxCell>&#xa;        <mxCell id="e4az-tmhH8eZ0OtNV26Z-10" value="connection" style="html=1;verticalAlign=bottom;endArrow=block;curved=0;rounded=0;" parent="NraJfhpnYq18qEgPwm5T-4" edge="1">&#xa;          <mxGeometry width="80" relative="1" as="geometry">&#xa;            <mxPoint x="250" y="80" as="sourcePoint"/>&#xa;            <mxPoint x="129.5" y="80" as="targetPoint"/>&#xa;          </mxGeometry>&#xa;        </mxCell>&#xa;        <mxCell id="e4az-tmhH8eZ0OtNV26Z-11" value="tableHandle" style="html=1;verticalAlign=bottom;endArrow=block;curved=0;rounded=0;" parent="NraJfhpnYq18qEgPwm5T-4" edge="1">&#xa;          <mxGeometry width="80" relative="1" as="geometry">&#xa;            <mxPoint x="250" y="130" as="sourcePoint"/>&#xa;            <mxPoint x="130" y="130" as="targetPoint"/>&#xa;            <mxPoint as="offset"/>&#xa;            <Array as="points">&#xa;              <mxPoint x="200" y="130"/>&#xa;            </Array>&#xa;          </mxGeometry>&#xa;        </mxCell>&#xa;        <mxCell id="e4az-tmhH8eZ0OtNV26Z-13" value="connect" style="shape=umlFrame;whiteSpace=wrap;html=1;pointerEvents=0;" parent="NraJfhpnYq18qEgPwm5T-4" vertex="1">&#xa;          <mxGeometry width="260" height="150" as="geometry"/>&#xa;        </mxCell>&#xa;        <mxCell id="NraJfhpnYq18qEgPwm5T-1" value="dataBaseInstance.&lt;br&gt;createTableHandle()" style="html=1;verticalAlign=bottom;endArrow=block;curved=0;rounded=0;" parent="NraJfhpnYq18qEgPwm5T-4" edge="1">&#xa;          <mxGeometry width="80" relative="1" as="geometry">&#xa;            <mxPoint x="130" y="110" as="sourcePoint"/>&#xa;            <mxPoint x="250" y="110" as="targetPoint"/>&#xa;            <mxPoint as="offset"/>&#xa;          </mxGeometry>&#xa;        </mxCell>&#xa;        <mxCell id="NraJfhpnYq18qEgPwm5T-6" value="" style="group" parent="1" vertex="1" connectable="0">&#xa;          <mxGeometry x="30" y="450" width="260" height="140" as="geometry"/>&#xa;        </mxCell>&#xa;        <mxCell id="e4az-tmhH8eZ0OtNV26Z-18" value="insertData" style="shape=umlFrame;whiteSpace=wrap;html=1;pointerEvents=0;width=70;height=30;container=0;" parent="NraJfhpnYq18qEgPwm5T-6" vertex="1">&#xa;          <mxGeometry width="260" height="140" as="geometry"/>&#xa;        </mxCell>&#xa;        <mxCell id="vdOqzi5z4dyMD7uhWqzi-2" value="insertData&lt;br&gt;(data)" style="html=1;verticalAlign=bottom;endArrow=block;curved=0;rounded=0;" parent="NraJfhpnYq18qEgPwm5T-6" target="e4az-tmhH8eZ0OtNV26Z-3" edge="1">&#xa;          <mxGeometry width="80" relative="1" as="geometry">&#xa;            <mxPoint x="10" y="60" as="sourcePoint"/>&#xa;            <mxPoint x="90" y="60" as="targetPoint"/>&#xa;          </mxGeometry>&#xa;        </mxCell>&#xa;        <mxCell id="vdOqzi5z4dyMD7uhWqzi-3" value="dataBaseInstance.&lt;br&gt;insertData&lt;br&gt;(data, tableHandle)" style="html=1;verticalAlign=bottom;endArrow=block;curved=0;rounded=0;" parent="NraJfhpnYq18qEgPwm5T-6" edge="1">&#xa;          <mxGeometry width="80" relative="1" as="geometry">&#xa;            <mxPoint x="130" y="70" as="sourcePoint"/>&#xa;            <mxPoint x="250" y="70" as="targetPoint"/>&#xa;            <mxPoint as="offset"/>&#xa;          </mxGeometry>&#xa;        </mxCell>&#xa;        <mxCell id="NraJfhpnYq18qEgPwm5T-5" value="dataBaseInstance.&lt;br&gt;saveChanges&lt;br&gt;(dataBaseConnection)" style="html=1;verticalAlign=bottom;endArrow=block;curved=0;rounded=0;" parent="NraJfhpnYq18qEgPwm5T-6" edge="1">&#xa;          <mxGeometry width="80" relative="1" as="geometry">&#xa;            <mxPoint x="130" y="120" as="sourcePoint"/>&#xa;            <mxPoint x="250" y="120" as="targetPoint"/>&#xa;            <mxPoint as="offset"/>&#xa;          </mxGeometry>&#xa;        </mxCell>&#xa;        <mxCell id="NraJfhpnYq18qEgPwm5T-13" value="" style="group" parent="1" vertex="1" connectable="0">&#xa;          <mxGeometry x="30" y="610" width="260" height="100" as="geometry"/>&#xa;        </mxCell>&#xa;        <mxCell id="NraJfhpnYq18qEgPwm5T-7" value="getData" style="shape=umlFrame;whiteSpace=wrap;html=1;pointerEvents=0;" parent="NraJfhpnYq18qEgPwm5T-13" vertex="1">&#xa;          <mxGeometry width="260" height="100" as="geometry"/>&#xa;        </mxCell>&#xa;        <mxCell id="NraJfhpnYq18qEgPwm5T-8" value="getData()" style="html=1;verticalAlign=bottom;endArrow=block;curved=0;rounded=0;" parent="NraJfhpnYq18qEgPwm5T-13" target="e4az-tmhH8eZ0OtNV26Z-3" edge="1">&#xa;          <mxGeometry width="80" relative="1" as="geometry">&#xa;            <mxPoint x="10" y="50" as="sourcePoint"/>&#xa;            <mxPoint x="90" y="50" as="targetPoint"/>&#xa;          </mxGeometry>&#xa;        </mxCell>&#xa;        <mxCell id="NraJfhpnYq18qEgPwm5T-9" value="dataBaseInstance.&lt;br&gt;getData(tableHandle)" style="html=1;verticalAlign=bottom;endArrow=block;curved=0;rounded=0;" parent="NraJfhpnYq18qEgPwm5T-13" edge="1">&#xa;          <mxGeometry width="80" relative="1" as="geometry">&#xa;            <mxPoint x="130" y="60" as="sourcePoint"/>&#xa;            <mxPoint x="250" y="60" as="targetPoint"/>&#xa;            <mxPoint as="offset"/>&#xa;          </mxGeometry>&#xa;        </mxCell>&#xa;        <mxCell id="NraJfhpnYq18qEgPwm5T-11" value="list[tuple]" style="html=1;verticalAlign=bottom;endArrow=block;curved=0;rounded=0;" parent="NraJfhpnYq18qEgPwm5T-13" target="e4az-tmhH8eZ0OtNV26Z-3" edge="1">&#xa;          <mxGeometry width="80" relative="1" as="geometry">&#xa;            <mxPoint x="250" y="80" as="sourcePoint"/>&#xa;            <mxPoint x="220" y="80" as="targetPoint"/>&#xa;          </mxGeometry>&#xa;        </mxCell>&#xa;        <mxCell id="NraJfhpnYq18qEgPwm5T-12" value="list[tuple]" style="html=1;verticalAlign=bottom;endArrow=block;curved=0;rounded=0;" parent="NraJfhpnYq18qEgPwm5T-13" edge="1">&#xa;          <mxGeometry width="80" relative="1" as="geometry">&#xa;            <mxPoint x="130" y="90" as="sourcePoint"/>&#xa;            <mxPoint x="10" y="90" as="targetPoint"/>&#xa;          </mxGeometry>&#xa;        </mxCell>&#xa;        <mxCell id="NraJfhpnYq18qEgPwm5T-15" value="getDataByKeyword" style="shape=umlFrame;whiteSpace=wrap;html=1;pointerEvents=0;width=120;height=30;" parent="1" vertex="1">&#xa;          <mxGeometry x="30" y="730" width="260" height="140" as="geometry"/>&#xa;        </mxCell>&#xa;        <mxCell id="NraJfhpnYq18qEgPwm5T-16" value="getDataByKeyWord&lt;br&gt;(column, keyWord)" style="html=1;verticalAlign=bottom;endArrow=block;curved=0;rounded=0;" parent="1" edge="1" target="e4az-tmhH8eZ0OtNV26Z-3">&#xa;          <mxGeometry width="80" relative="1" as="geometry">&#xa;            <mxPoint x="40" y="795" as="sourcePoint"/>&#xa;            <mxPoint x="120" y="795" as="targetPoint"/>&#xa;          </mxGeometry>&#xa;        </mxCell>&#xa;        <mxCell id="NraJfhpnYq18qEgPwm5T-17" value="dataBaseInstance.&lt;br&gt;getDataByKeyWord&lt;br&gt;(column, keyWord,&lt;br&gt;&amp;nbsp;tableHandle)" style="html=1;verticalAlign=bottom;endArrow=block;curved=0;rounded=0;" parent="1" edge="1">&#xa;          <mxGeometry width="80" relative="1" as="geometry">&#xa;            <mxPoint x="160" y="808" as="sourcePoint"/>&#xa;            <mxPoint x="280" y="808" as="targetPoint"/>&#xa;            <mxPoint as="offset"/>&#xa;          </mxGeometry>&#xa;        </mxCell>&#xa;        <mxCell id="NraJfhpnYq18qEgPwm5T-18" value="list[tuple]" style="html=1;verticalAlign=bottom;endArrow=block;curved=0;rounded=0;" parent="1" edge="1" target="e4az-tmhH8eZ0OtNV26Z-3">&#xa;          <mxGeometry width="80" relative="1" as="geometry">&#xa;            <mxPoint x="280" y="834" as="sourcePoint"/>&#xa;            <mxPoint x="250" y="834" as="targetPoint"/>&#xa;          </mxGeometry>&#xa;        </mxCell>&#xa;        <mxCell id="NraJfhpnYq18qEgPwm5T-19" value="list[tuple]" style="html=1;verticalAlign=bottom;endArrow=block;curved=0;rounded=0;" parent="1" edge="1">&#xa;          <mxGeometry width="80" relative="1" as="geometry">&#xa;            <mxPoint x="160" y="847" as="sourcePoint"/>&#xa;            <mxPoint x="40" y="847" as="targetPoint"/>&#xa;          </mxGeometry>&#xa;        </mxCell>&#xa;      </root>&#xa;    </mxGraphModel>&#xa;  </diagram></mxfile>